<?xml version="1.0" encoding="UTF-8" standalone="no"?>
<!-- Created with Inkscape (http://www.inkscape.org/) -->

<svg
   xmlns:dc="http://purl.org/dc/elements/1.1/"
   xmlns:cc="http://creativecommons.org/ns#"
   xmlns:rdf="http://www.w3.org/1999/02/22-rdf-syntax-ns#"
   xmlns:svg="http://www.w3.org/2000/svg"
   xmlns="http://www.w3.org/2000/svg"
   xmlns:sodipodi="http://sodipodi.sourceforge.net/DTD/sodipodi-0.dtd"
   xmlns:inkscape="http://www.inkscape.org/namespaces/inkscape"
   width="744.09448819"
   height="1052.3622047"
   id="svg3861"
   version="1.1"
   inkscape:version="0.48.2 r9819"
   sodipodi:docname="New document 5">
  <defs
     id="defs3863" />
  <sodipodi:namedview
     id="base"
     pagecolor="#ffffff"
     bordercolor="#ffffff"
     borderopacity="0.0"
     inkscape:pageopacity="0.0"
     inkscape:pageshadow="0"
     inkscape:zoom="0.49497475"
     inkscape:cx="350"
     inkscape:cy="573.08184"
     inkscape:document-units="px"
     inkscape:current-layer="layer1"
     showgrid="true"
     inkscape:object-paths="false"
     inkscape:snap-intersection-paths="false"
     inkscape:snap-nodes="false"
     inkscape:window-width="1439"
     inkscape:window-height="903"
     inkscape:window-x="98"
     inkscape:window-y="9"
     inkscape:window-maximized="0" />
  <metadata
     id="metadata3866">
    <rdf:RDF>
      <cc:Work
         rdf:about="">
        <dc:format>image/svg+xml</dc:format>
        <dc:type
           rdf:resource="http://purl.org/dc/dcmitype/StillImage" />
        <dc:title></dc:title>
      </cc:Work>
    </rdf:RDF>
  </metadata>
  <g
     inkscape:label="Layer 1"
     inkscape:groupmode="layer"
     id="layer1">
    <g
       id="g3920">
      <path
         inkscape:connector-curvature="0"
         id="path3912"
         d="m -40,1118.0765 -188.57143,2.8571 c 0,0 -54.28571,-14.2857 -82.85714,-65.7143 C -340,1003.7908 -357.14286,898.07647 -357.14286,898.07647 l -17.14285,-557.14286 c 0,0 5.71428,-231.42857 25.71428,-254.285713 20,-22.857143 28.57143,-117.142857 174.28572,-217.142857"
         style="fill:none;stroke:#000000;stroke-width:1px;stroke-linecap:butt;stroke-linejoin:miter;stroke-opacity:1" />
      <path
         style="fill:none;stroke:#000000;stroke-width:1px;stroke-linecap:butt;stroke-linejoin:miter;stroke-opacity:1"
         d="m -234.28572,1118.0765 188.57143,2.8571 c 0,0 54.285714,-14.2857 82.857147,-65.7143 28.57143,-51.4285 45.71429,-157.14283 45.71429,-157.14283 l 17.14285,-557.14286 c 0,0 -5.71428,-231.42857 -25.71428,-254.285713 -20,-22.857143 -28.57143,-117.142857 -174.285727,-217.142857"
         id="path3914"
         inkscape:connector-curvature="0" />
      <path
         inkscape:connector-curvature="0"
         id="path3918"
         d="m -176.7767,-129.5163 39.39595,-28.28427 36.3655,25.25382"
         style="fill:none;stroke:#000000;stroke-width:1px;stroke-linecap:butt;stroke-linejoin:miter;stroke-opacity:1" />
    </g>
    <path
       style="fill:#000000;fill-opacity:1;stroke:#000000;stroke-width:2.97186875000000006;stroke-miterlimit:4;stroke-opacity:1;stroke-dasharray:none"
       d="m -249.02046,1110.6444 c -19.03735,-10.2971 -29.58032,-18.2568 -42.55896,-32.131 -23.72208,-25.359 -38.70248,-63.2532 -56.55007,-143.04817 l -7.0041,-31.31473 -8.89925,-283.85286 c -7.28292,-232.29795 -8.57074,-291.00818 -7.09055,-323.24882 4.172,-90.87156 8.57284,-143.84368 14.89618,-179.30256 2.79333,-15.66393 6.93864,-27.130251 14.05965,-38.890386 1.68209,-2.777919 9.94291,-19.555583 18.35738,-37.28368 32.31693,-68.087267 67.55621,-108.810715 142.94054,-165.185884 16.96427,-12.6865 33.7866,-25.10396 37.38297,-27.59434 l 6.53886,-4.52797 17.7048,12.53877 c 9.73765,6.89633 18.15939,13.1235 18.71498,13.83815 0.555579,0.71466 9.666226,7.76081 20.245897,15.65811 66.113958,49.351467 104.723908,97.137485 136.984503,169.540357 5.444197,12.218461 12.265697,25.965244 15.158915,30.548386 12.759156,20.211817 22.399001,109.494997 24.817205,229.853947 0.863014,42.95486 -0.854993,119.94491 -7.138828,319.91463 -9.034603,287.50713 -7.770861,269.02423 -22.400557,327.62198 -11.802582,47.27417 -24.354111,80.28717 -38.394969,100.98647 -12.748994,18.7947 -34.842303,37.213 -57.02796,47.5419 l -10.624906,4.9465 -98.99495,-0.026 -98.99495,-0.026 -12.12183,-6.5566 0,10e-5 z"
       id="path3925"
       inkscape:connector-curvature="0" />
  </g>
</svg>
